# xmcd CD database file
#
# Track frame offsets:
#	150
#	22141
#	47106
#	68428
#	90692
#	111364
#	130836
#	149537
#	170962
#	199000
#	220965
#	242879
#
# Disc length: 3575 seconds
#
# Revision: 0
# Processed by: cddbd v1.5.2PL0 Copyright (c) Steve Scherf et al.
# Submitted via: CDex 1.78
#
DISCID=ba0df50c
DTITLE=Nick Cuda - The Guitar In The Window
DYEAR=2003
DGENRE=New Age
TTITLE0=The Guitar in the Window
TTITLE1=European Kind
TTITLE2=Amore Con Lei Debtee (In Love with Debt)
TTITLE3=Notte Piccante
TTITLE4=Chitarra Arrabbiato
TTITLE5=Zitou (Quiet Time)
TTITLE6=Passionate Touches
TTITLE7=Samba 'G'
TTITLE8=Blue in Spain
TTITLE9=Waltz to Remember You
TTITLE10=Song for a Friend
TTITLE11=Groovin with Ms. S. G.
EXTD=YEAR: 2003
EXTT0=
EXTT1=
EXTT2=
EXTT3=
EXTT4=
EXTT5=
EXTT6=
EXTT7=
EXTT8=
EXTT9=
EXTT10=
EXTT11=
PLAYORDER=
